<?xml version="1.0" encoding="UTF-8" standalone="no"?>
<!DOCTYPE svg PUBLIC "-//W3C//DTD SVG 1.1//EN"
 "http://www.w3.org/Graphics/SVG/1.1/DTD/svg11.dtd">
<!-- Generated by graphviz version 2.40.1 (20161225.0304)
 -->
<!-- Title: %3 Pages: 1 -->
<svg width="195pt" height="336pt"
 viewBox="0.00 0.00 194.57 336.00" xmlns="http://www.w3.org/2000/svg" xmlns:xlink="http://www.w3.org/1999/xlink">
<g id="graph0" class="graph" transform="scale(1 1) rotate(0) translate(4 332)">
<title>%3</title>
<!-- preproposal -->
<g id="node1" class="node">
<title>preproposal</title>
<polygon fill="#ffffff" stroke="#000000" points="108.568,-328 13.568,-328 13.568,-292 108.568,-292 108.568,-328"/>
<text text-anchor="middle" x="61.068" y="-306.9" font-family="Times,serif" font-size="12.00" fill="#000000">Pre&#45;Proposal</text>
</g>
<!-- proposal -->
<g id="node2" class="node">
<title>proposal</title>
<polygon fill="#ffffff" stroke="#000000" points="96.568,-256 25.568,-256 25.568,-220 96.568,-220 96.568,-256"/>
<text text-anchor="middle" x="61.068" y="-234.9" font-family="Times,serif" font-size="12.00" fill="#000000">Proposal</text>
</g>
<!-- preproposal&#45;&gt;proposal -->
<g id="edge1" class="edge">
<title>preproposal&#45;&gt;proposal</title>
<path fill="none" stroke="#000000" d="M61.068,-291.9539C61.068,-283.4073 61.068,-274.8607 61.068,-266.3142"/>
<polygon fill="#000000" stroke="#000000" points="64.5681,-266.2812 61.068,-256.2813 57.5681,-266.2813 64.5681,-266.2812"/>
<text text-anchor="middle" x="83.068" y="-282.426" font-family="Times,serif" font-size="10.00" fill="#000000">EMO</text>
<text text-anchor="middle" x="83.068" y="-271.426" font-family="Times,serif" font-size="10.00" fill="#000000">Approval</text>
</g>
<!-- incubation -->
<g id="node3" class="node">
<title>incubation</title>
<polygon fill="#ffffff" stroke="#000000" points="101.568,-184 20.568,-184 20.568,-148 101.568,-148 101.568,-184"/>
<text text-anchor="middle" x="61.068" y="-162.9" font-family="Times,serif" font-size="12.00" fill="#000000">Incubation</text>
</g>
<!-- proposal&#45;&gt;incubation -->
<g id="edge2" class="edge">
<title>proposal&#45;&gt;incubation</title>
<path fill="none" stroke="#000000" d="M61.068,-219.9539C61.068,-211.4073 61.068,-202.8607 61.068,-194.3142"/>
<polygon fill="#000000" stroke="#000000" points="64.5681,-194.2812 61.068,-184.2813 57.5681,-194.2813 64.5681,-194.2812"/>
<text text-anchor="middle" x="82.568" y="-210.426" font-family="Times,serif" font-size="10.00" fill="#000000">Creation</text>
<text text-anchor="middle" x="82.568" y="-199.426" font-family="Times,serif" font-size="10.00" fill="#000000">Review</text>
</g>
<!-- incubation&#45;&gt;incubation -->
<g id="edge6" class="edge">
<title>incubation:e&#45;&gt;incubation:e</title>
<path fill="none" stroke="#000000" d="M102.068,-166C114.9013,-175 141.568,-175 141.568,-166 141.568,-158.8281 124.6344,-157.3713 111.2611,-161.6296"/>
<polygon fill="#000000" stroke="#000000" points="109.5966,-158.5455 102.068,-166 112.6021,-164.8675 109.5966,-158.5455"/>
<text text-anchor="middle" x="164.068" y="-169" font-family="Times,serif" font-size="10.00" fill="#000000">Progress</text>
<text text-anchor="middle" x="164.068" y="-158" font-family="Times,serif" font-size="10.00" fill="#000000">Review</text>
</g>
<!-- mature -->
<g id="node4" class="node">
<title>mature</title>
<polygon fill="#ffffff" stroke="#000000" points="91.568,-112 30.568,-112 30.568,-76 91.568,-76 91.568,-112"/>
<text text-anchor="middle" x="61.068" y="-90.9" font-family="Times,serif" font-size="12.00" fill="#000000">Mature</text>
</g>
<!-- incubation&#45;&gt;mature -->
<g id="edge3" class="edge">
<title>incubation&#45;&gt;mature</title>
<path fill="none" stroke="#000000" d="M61.068,-147.9539C61.068,-139.4073 61.068,-130.8607 61.068,-122.3142"/>
<polygon fill="#000000" stroke="#000000" points="64.5681,-122.2812 61.068,-112.2813 57.5681,-122.2813 64.5681,-122.2812"/>
<text text-anchor="middle" x="88.568" y="-138.426" font-family="Times,serif" font-size="10.00" fill="#000000">Graduation</text>
<text text-anchor="middle" x="88.568" y="-127.426" font-family="Times,serif" font-size="10.00" fill="#000000">Review</text>
</g>
<!-- archived -->
<g id="node5" class="node">
<title>archived</title>
<polygon fill="#ffffff" stroke="#000000" points="96.568,-36 25.568,-36 25.568,0 96.568,0 96.568,-36"/>
<text text-anchor="middle" x="61.068" y="-14.9" font-family="Times,serif" font-size="12.00" fill="#000000">Archived</text>
</g>
<!-- incubation&#45;&gt;archived -->
<g id="edge5" class="edge">
<title>incubation&#45;&gt;archived</title>
<path fill="none" stroke="#000000" d="M33.6655,-147.7789C22.339,-138.5622 10.4874,-126.2908 4.568,-112 -1.555,-97.2179 -1.458,-90.8219 4.568,-76 9.6228,-63.5667 18.7661,-52.34 28.2451,-43.1493"/>
<polygon fill="#000000" stroke="#000000" points="30.8072,-45.5501 35.8474,-36.2309 26.0958,-40.373 30.8072,-45.5501"/>
</g>
<!-- mature&#45;&gt;mature -->
<g id="edge7" class="edge">
<title>mature:e&#45;&gt;mature:e</title>
<path fill="none" stroke="#000000" d="M92.068,-94C101.568,-103 121.568,-103 121.568,-94 121.568,-87.3203 110.5511,-85.5982 100.9867,-88.8337"/>
<polygon fill="#000000" stroke="#000000" points="98.9667,-85.9589 92.068,-94 102.4754,-92.0161 98.9667,-85.9589"/>
<text text-anchor="middle" x="144.068" y="-97" font-family="Times,serif" font-size="10.00" fill="#000000">Progress</text>
<text text-anchor="middle" x="144.068" y="-86" font-family="Times,serif" font-size="10.00" fill="#000000">Review</text>
</g>
<!-- mature&#45;&gt;archived -->
<g id="edge4" class="edge">
<title>mature&#45;&gt;archived</title>
<path fill="none" stroke="#000000" d="M61.068,-75.855C61.068,-67.0022 61.068,-56.1501 61.068,-46.2462"/>
<polygon fill="#000000" stroke="#000000" points="64.5681,-46.0109 61.068,-36.0109 57.5681,-46.011 64.5681,-46.0109"/>
<text text-anchor="middle" x="47.068" y="-59" font-family="Times,serif" font-size="10.00" fill="#000000">Termination</text>
<text text-anchor="middle" x="47.068" y="-48" font-family="Times,serif" font-size="10.00" fill="#000000">Review</text>
</g>
</g>
</svg>
